<svg width="208" height="208" viewBox="0 0 208 208" fill="none" xmlns="http://www.w3.org/2000/svg">
<g clip-path="url(#clip0_185_1200)">
<rect width="208" height="208" fill="url(#paint0_diamond_185_1200)"/>
<rect width="208" height="208" fill="url(#paint1_linear_185_1200)" fill-opacity="0.1"/>
<g filter="url(#filter0_d_185_1200)">
<path d="M139.799 53.4094C139.799 59.165 135.213 63.8308 129.557 63.8308C123.9 63.8308 119.314 59.165 119.314 53.4094C119.314 47.6539 123.9 42.9881 129.557 42.9881C135.213 42.9881 139.799 47.6539 139.799 53.4094Z" fill="url(#paint2_radial_185_1200)" shape-rendering="crispEdges"/>
<path d="M165.405 104.214C165.405 109.969 160.819 114.635 155.163 114.635C149.506 114.635 144.92 109.969 144.92 104.214C144.92 98.458 149.506 93.7922 155.163 93.7922C160.819 93.7922 165.405 98.458 165.405 104.214Z" fill="url(#paint3_radial_185_1200)" shape-rendering="crispEdges"/>
<path d="M157.723 132.004C157.723 137.759 153.137 142.425 147.481 142.425C141.824 142.425 137.238 137.759 137.238 132.004C137.238 126.248 141.824 121.582 147.481 121.582C153.137 121.582 157.723 126.248 157.723 132.004Z" fill="url(#paint4_radial_185_1200)" shape-rendering="crispEdges"/>
<path d="M139.799 152.847C139.799 158.602 135.213 163.268 129.557 163.268C123.9 163.268 119.314 158.602 119.314 152.847C119.314 147.091 123.9 142.425 129.557 142.425C135.213 142.425 139.799 147.091 139.799 152.847Z" fill="url(#paint5_radial_185_1200)" shape-rendering="crispEdges"/>
<path d="M111.632 158.926C111.632 164.681 107.046 169.347 101.39 169.347C95.7328 169.347 91.147 164.681 91.147 158.926C91.147 153.17 95.7328 148.504 101.39 148.504C107.046 148.504 111.632 153.17 111.632 158.926Z" fill="url(#paint6_radial_185_1200)" shape-rendering="crispEdges"/>
<path d="M111.632 49.5014C111.632 55.257 107.046 59.9228 101.39 59.9228C95.7328 59.9228 91.147 55.257 91.147 49.5014C91.147 43.7459 95.7328 39.0801 101.39 39.0801C107.046 39.0801 111.632 43.7459 111.632 49.5014Z" fill="url(#paint7_radial_185_1200)" shape-rendering="crispEdges"/>
<path d="M86.0249 152.847C86.0249 158.602 81.4391 163.268 75.7823 163.268C70.1255 163.268 65.5397 158.602 65.5397 152.847C65.5397 147.091 70.1255 142.425 75.7823 142.425C81.4391 142.425 86.0249 147.091 86.0249 152.847Z" fill="url(#paint8_radial_185_1200)" shape-rendering="crispEdges"/>
<path d="M66.3936 132.004C66.3936 137.759 61.8078 142.425 56.151 142.425C50.4942 142.425 45.9084 137.759 45.9084 132.004C45.9084 126.248 50.4942 121.582 56.151 121.582C61.8078 121.582 66.3936 126.248 66.3936 132.004Z" fill="url(#paint9_radial_185_1200)" shape-rendering="crispEdges"/>
<path d="M59.5653 104.214C59.5653 109.969 54.9795 114.635 49.3227 114.635C43.6658 114.635 39.0801 109.969 39.0801 104.214C39.0801 98.458 43.6658 93.7922 49.3227 93.7922C54.9795 93.7922 59.5653 98.458 59.5653 104.214Z" fill="url(#paint10_radial_185_1200)" shape-rendering="crispEdges"/>
<path d="M66.3936 78.1602C66.3936 83.9157 61.8078 88.5815 56.151 88.5815C50.4942 88.5815 45.9084 83.9157 45.9084 78.1602C45.9084 72.4046 50.4942 67.7388 56.151 67.7388C61.8078 67.7388 66.3936 72.4046 66.3936 78.1602Z" fill="url(#paint11_radial_185_1200)" shape-rendering="crispEdges"/>
<path d="M86.0249 59.9228C86.0249 65.6783 81.4391 70.3441 75.7823 70.3441C70.1255 70.3441 65.5397 65.6783 65.5397 59.9228C65.5397 54.1672 70.1255 49.5014 75.7823 49.5014C81.4391 49.5014 86.0249 54.1672 86.0249 59.9228Z" fill="url(#paint12_radial_185_1200)" shape-rendering="crispEdges"/>
<path d="M152.926 58.2784C157.438 54.8071 163.862 55.7146 167.274 60.3055C170.686 64.8964 169.794 71.4321 165.281 74.9035L153.415 84.0328C148.903 87.5041 142.479 86.5966 139.067 82.0057C135.655 77.4148 136.547 70.8791 141.06 67.4077L152.926 58.2784Z" fill="url(#paint13_radial_185_1200)" shape-rendering="crispEdges"/>
</g>
<g opacity="0.5">
<path opacity="0.32" d="M131.234 91.8898C131.147 91.6307 130.982 91.4052 130.761 91.2455C130.539 91.0857 130.273 90.9998 130 90.9998C129.727 90.9998 129.461 91.0857 129.239 91.2455C129.018 91.4052 128.853 91.6307 128.766 91.8898L127.879 94.5557C127.815 94.7473 127.707 94.9215 127.565 95.0643C127.422 95.2071 127.248 95.3147 127.056 95.3785L124.39 96.2662C124.131 96.3523 123.905 96.5178 123.746 96.7392C123.586 96.9606 123.5 97.2267 123.5 97.4998C123.5 97.7728 123.586 98.0389 123.746 98.2603C123.905 98.4817 124.131 98.6472 124.39 98.7333L127.056 99.6223C127.247 99.686 127.421 99.7934 127.564 99.936C127.707 100.079 127.815 100.252 127.879 100.444L128.766 103.11C128.853 103.369 129.018 103.594 129.239 103.754C129.461 103.914 129.727 104 130 104C130.273 104 130.539 103.914 130.761 103.754C130.982 103.594 131.147 103.369 131.234 103.11L132.121 100.444C132.185 100.252 132.293 100.078 132.435 99.9352C132.578 99.7924 132.752 99.6848 132.944 99.621L135.61 98.7333C135.869 98.6472 136.095 98.4817 136.254 98.2603C136.414 98.0389 136.5 97.7728 136.5 97.4998C136.5 97.2267 136.414 96.9606 136.254 96.7392C136.095 96.5178 135.869 96.3523 135.61 96.2662L132.944 95.3785C132.752 95.3147 132.578 95.2071 132.435 95.0643C132.293 94.9215 132.185 94.7473 132.121 94.5557L131.234 91.8898Z" fill="white"/>
<g opacity="0.09" filter="url(#filter1_f_185_1200)">
<path d="M163.734 13.8898C163.647 13.6307 163.482 13.4052 163.261 13.2455C163.039 13.0857 162.773 12.9998 162.5 12.9998C162.227 12.9998 161.961 13.0857 161.739 13.2455C161.518 13.4052 161.353 13.6307 161.266 13.8898L160.379 16.5557C160.315 16.7473 160.207 16.9215 160.065 17.0643C159.922 17.2071 159.748 17.3147 159.556 17.3785L156.89 18.2662C156.631 18.3523 156.405 18.5178 156.246 18.7392C156.086 18.9606 156 19.2267 156 19.4998C156 19.7728 156.086 20.0389 156.246 20.2603C156.405 20.4817 156.631 20.6472 156.89 20.7333L159.556 21.6223C159.747 21.686 159.921 21.7934 160.064 21.936C160.207 22.0786 160.315 22.2524 160.379 22.4438L161.266 25.1097C161.353 25.3688 161.518 25.5943 161.739 25.754C161.961 25.9138 162.227 25.9998 162.5 25.9998C162.773 25.9998 163.039 25.9138 163.261 25.754C163.482 25.5943 163.647 25.3688 163.734 25.1097L164.621 22.4438C164.685 22.2522 164.793 22.0781 164.935 21.9352C165.078 21.7924 165.252 21.6848 165.444 21.621L168.11 20.7333C168.369 20.6472 168.595 20.4817 168.754 20.2603C168.914 20.0389 169 19.7728 169 19.4998C169 19.2267 168.914 18.9606 168.754 18.7392C168.595 18.5178 168.369 18.3523 168.11 18.2662L165.444 17.3785C165.252 17.3147 165.078 17.2071 164.935 17.0643C164.793 16.9215 164.685 16.7473 164.621 16.5557L163.734 13.8898Z" fill="white"/>
</g>
<path opacity="0.11" d="M20.7335 111.39C20.6474 111.131 20.482 110.905 20.2605 110.745C20.0391 110.586 19.773 110.5 19.5 110.5C19.227 110.5 18.9609 110.586 18.7395 110.745C18.518 110.905 18.3526 111.131 18.2665 111.39L17.3787 114.056C17.3149 114.247 17.2073 114.421 17.0645 114.564C16.9217 114.707 16.7476 114.815 16.5559 114.878L13.89 115.766C13.6309 115.852 13.4055 116.018 13.2457 116.239C13.086 116.461 13 116.727 13 117C13 117.273 13.086 117.539 13.2457 117.76C13.4055 117.982 13.6309 118.147 13.89 118.233L16.5559 119.122C16.7474 119.186 16.9215 119.293 17.0643 119.436C17.2071 119.579 17.3147 119.752 17.3787 119.944L18.2665 122.61C18.3526 122.869 18.518 123.094 18.7395 123.254C18.9609 123.414 19.227 123.5 19.5 123.5C19.773 123.5 20.0391 123.414 20.2605 123.254C20.482 123.094 20.6474 122.869 20.7335 122.61L21.6213 119.944C21.6851 119.752 21.7927 119.578 21.9355 119.435C22.0783 119.292 22.2524 119.185 22.4441 119.121L25.11 118.233C25.3691 118.147 25.5945 117.982 25.7543 117.76C25.914 117.539 26 117.273 26 117C26 116.727 25.914 116.461 25.7543 116.239C25.5945 116.018 25.3691 115.852 25.11 115.766L22.4441 114.878C22.2524 114.815 22.0783 114.707 21.9355 114.564C21.7927 114.421 21.6851 114.247 21.6213 114.056L20.7335 111.39Z" fill="white"/>
<path opacity="0.2" d="M150.734 72.3898C150.647 72.1307 150.482 71.9052 150.261 71.7455C150.039 71.5857 149.773 71.4998 149.5 71.4998C149.227 71.4998 148.961 71.5857 148.739 71.7455C148.518 71.9052 148.353 72.1307 148.266 72.3898L147.379 75.0557C147.315 75.2473 147.207 75.4215 147.065 75.5643C146.922 75.7071 146.748 75.8147 146.556 75.8785L143.89 76.7662C143.631 76.8523 143.405 77.0178 143.246 77.2392C143.086 77.4606 143 77.7267 143 77.9998C143 78.2728 143.086 78.5389 143.246 78.7603C143.405 78.9817 143.631 79.1472 143.89 79.2333L146.556 80.1223C146.747 80.186 146.921 80.2934 147.064 80.436C147.207 80.5786 147.315 80.7524 147.379 80.9438L148.266 83.6097C148.353 83.8688 148.518 84.0943 148.739 84.254C148.961 84.4138 149.227 84.4998 149.5 84.4998C149.773 84.4998 150.039 84.4138 150.261 84.254C150.482 84.0943 150.647 83.8688 150.734 83.6097L151.621 80.9438C151.685 80.7522 151.793 80.5781 151.935 80.4352C152.078 80.2924 152.252 80.1848 152.444 80.121L155.11 79.2333C155.369 79.1472 155.595 78.9817 155.754 78.7603C155.914 78.5389 156 78.2728 156 77.9998C156 77.7267 155.914 77.4606 155.754 77.2392C155.595 77.0178 155.369 76.8523 155.11 76.7662L152.444 75.8785C152.252 75.8147 152.078 75.7071 151.935 75.5643C151.793 75.4215 151.685 75.2473 151.621 75.0557L150.734 72.3898Z" fill="white"/>
<path opacity="0.32" d="M66.2335 20.3898C66.1474 20.1307 65.982 19.9052 65.7605 19.7455C65.5391 19.5857 65.273 19.4998 65 19.4998C64.727 19.4998 64.4609 19.5857 64.2395 19.7455C64.018 19.9052 63.8526 20.1307 63.7665 20.3898L62.8787 23.0557C62.8149 23.2473 62.7073 23.4215 62.5645 23.5643C62.4217 23.7071 62.2476 23.8147 62.0559 23.8785L59.39 24.7662C59.1309 24.8523 58.9055 25.0178 58.7457 25.2392C58.586 25.4606 58.5 25.7267 58.5 25.9998C58.5 26.2728 58.586 26.5389 58.7457 26.7603C58.9055 26.9817 59.1309 27.1472 59.39 27.2333L62.0559 28.1223C62.2474 28.186 62.4215 28.2934 62.5643 28.436C62.7071 28.5786 62.8147 28.7524 62.8787 28.9438L63.7665 31.6097C63.8526 31.8688 64.018 32.0943 64.2395 32.254C64.4609 32.4138 64.727 32.4998 65 32.4998C65.273 32.4998 65.5391 32.4138 65.7605 32.254C65.982 32.0943 66.1474 31.8688 66.2335 31.6097L67.1213 28.9438C67.1851 28.7522 67.2927 28.5781 67.4355 28.4352C67.5783 28.2924 67.7524 28.1848 67.9441 28.121L70.61 27.2333C70.8691 27.1472 71.0945 26.9817 71.2543 26.7603C71.414 26.5389 71.5 26.2728 71.5 25.9998C71.5 25.7267 71.414 25.4606 71.2543 25.2392C71.0945 25.0178 70.8691 24.8523 70.61 24.7662L67.9441 23.8785C67.7524 23.8147 67.5783 23.7071 67.4355 23.5643C67.2927 23.4215 67.1851 23.2473 67.1213 23.0557L66.2335 20.3898Z" fill="white"/>
<g opacity="0.55" filter="url(#filter2_f_185_1200)">
<path d="M118.234 78.8898C118.147 78.6307 117.982 78.4052 117.761 78.2455C117.539 78.0857 117.273 77.9998 117 77.9998C116.727 77.9998 116.461 78.0857 116.239 78.2455C116.018 78.4052 115.853 78.6307 115.766 78.8898L114.879 81.5557C114.815 81.7473 114.707 81.9215 114.565 82.0643C114.422 82.2071 114.248 82.3147 114.056 82.3785L111.39 83.2662C111.131 83.3523 110.905 83.5178 110.746 83.7392C110.586 83.9606 110.5 84.2267 110.5 84.4998C110.5 84.7728 110.586 85.0389 110.746 85.2603C110.905 85.4817 111.131 85.6472 111.39 85.7333L114.056 86.6223C114.247 86.686 114.421 86.7934 114.564 86.936C114.707 87.0786 114.815 87.2524 114.879 87.4438L115.766 90.1097C115.853 90.3688 116.018 90.5943 116.239 90.754C116.461 90.9138 116.727 90.9998 117 90.9998C117.273 90.9998 117.539 90.9138 117.761 90.754C117.982 90.5943 118.147 90.3688 118.234 90.1097L119.121 87.4438C119.185 87.2522 119.293 87.0781 119.435 86.9352C119.578 86.7924 119.752 86.6848 119.944 86.621L122.61 85.7333C122.869 85.6472 123.095 85.4817 123.254 85.2603C123.414 85.0389 123.5 84.7728 123.5 84.4998C123.5 84.2267 123.414 83.9606 123.254 83.7392C123.095 83.5178 122.869 83.3523 122.61 83.2662L119.944 82.3785C119.752 82.3147 119.578 82.2071 119.435 82.0643C119.293 81.9215 119.185 81.7473 119.121 81.5557L118.234 78.8898Z" fill="white"/>
</g>
<g opacity="0.31" filter="url(#filter3_f_185_1200)">
<path d="M40.2335 78.8898C40.1474 78.6307 39.982 78.4052 39.7605 78.2455C39.5391 78.0857 39.273 77.9998 39 77.9998C38.727 77.9998 38.4609 78.0857 38.2395 78.2455C38.018 78.4052 37.8526 78.6307 37.7665 78.8898L36.8787 81.5557C36.8149 81.7473 36.7073 81.9215 36.5645 82.0643C36.4217 82.2071 36.2476 82.3147 36.0559 82.3785L33.39 83.2662C33.1309 83.3523 32.9055 83.5178 32.7457 83.7392C32.586 83.9606 32.5 84.2267 32.5 84.4998C32.5 84.7728 32.586 85.0389 32.7457 85.2603C32.9055 85.4817 33.1309 85.6472 33.39 85.7333L36.0559 86.6223C36.2474 86.686 36.4215 86.7934 36.5643 86.936C36.7071 87.0786 36.8147 87.2524 36.8787 87.4438L37.7665 90.1097C37.8526 90.3688 38.018 90.5943 38.2395 90.754C38.4609 90.9138 38.727 90.9998 39 90.9998C39.273 90.9998 39.5391 90.9138 39.7605 90.754C39.982 90.5943 40.1474 90.3688 40.2335 90.1097L41.1213 87.4438C41.1851 87.2522 41.2927 87.0781 41.4355 86.9352C41.5783 86.7924 41.7524 86.6848 41.9441 86.621L44.61 85.7333C44.8691 85.6472 45.0945 85.4817 45.2543 85.2603C45.414 85.0389 45.5 84.7728 45.5 84.4998C45.5 84.2267 45.414 83.9606 45.2543 83.7392C45.0945 83.5178 44.8691 83.3523 44.61 83.2662L41.9441 82.3785C41.7524 82.3147 41.5783 82.2071 41.4355 82.0643C41.2927 81.9215 41.1851 81.7473 41.1213 81.5557L40.2335 78.8898Z" fill="white"/>
</g>
<g opacity="0.17" filter="url(#filter4_f_185_1200)">
<path d="M111.734 20.3898C111.647 20.1307 111.482 19.9052 111.261 19.7455C111.039 19.5857 110.773 19.4998 110.5 19.4998C110.227 19.4998 109.961 19.5857 109.739 19.7455C109.518 19.9052 109.353 20.1307 109.266 20.3898L108.379 23.0557C108.315 23.2473 108.207 23.4215 108.065 23.5643C107.922 23.7071 107.748 23.8147 107.556 23.8785L104.89 24.7662C104.631 24.8523 104.405 25.0178 104.246 25.2392C104.086 25.4606 104 25.7267 104 25.9998C104 26.2728 104.086 26.5389 104.246 26.7603C104.405 26.9817 104.631 27.1472 104.89 27.2333L107.556 28.1223C107.747 28.186 107.921 28.2934 108.064 28.436C108.207 28.5786 108.315 28.7524 108.379 28.9438L109.266 31.6097C109.353 31.8688 109.518 32.0943 109.739 32.254C109.961 32.4138 110.227 32.4998 110.5 32.4998C110.773 32.4998 111.039 32.4138 111.261 32.254C111.482 32.0943 111.647 31.8688 111.734 31.6097L112.621 28.9438C112.685 28.7522 112.793 28.5781 112.935 28.4352C113.078 28.2924 113.252 28.1848 113.444 28.121L116.11 27.2333C116.369 27.1472 116.595 26.9817 116.754 26.7603C116.914 26.5389 117 26.2728 117 25.9998C117 25.7267 116.914 25.4606 116.754 25.2392C116.595 25.0178 116.369 24.8523 116.11 24.7662L113.444 23.8785C113.252 23.8147 113.078 23.7071 112.935 23.5643C112.793 23.4215 112.685 23.2473 112.621 23.0557L111.734 20.3898Z" fill="white"/>
</g>
<g opacity="0.21" filter="url(#filter5_f_185_1200)">
<path d="M98.7335 98.3898C98.6474 98.1307 98.482 97.9052 98.2605 97.7455C98.0391 97.5857 97.773 97.4998 97.5 97.4998C97.227 97.4998 96.9609 97.5857 96.7395 97.7455C96.518 97.9052 96.3526 98.1307 96.2665 98.3898L95.3787 101.056C95.3149 101.247 95.2073 101.421 95.0645 101.564C94.9217 101.707 94.7476 101.815 94.5559 101.878L91.89 102.766C91.6309 102.852 91.4055 103.018 91.2457 103.239C91.086 103.461 91 103.727 91 104C91 104.273 91.086 104.539 91.2457 104.76C91.4055 104.982 91.6309 105.147 91.89 105.233L94.5559 106.122C94.7474 106.186 94.9215 106.293 95.0643 106.436C95.2071 106.579 95.3147 106.752 95.3787 106.944L96.2665 109.61C96.3526 109.869 96.518 110.094 96.7395 110.254C96.9609 110.414 97.227 110.5 97.5 110.5C97.773 110.5 98.0391 110.414 98.2605 110.254C98.482 110.094 98.6474 109.869 98.7335 109.61L99.6213 106.944C99.6851 106.752 99.7927 106.578 99.9355 106.435C100.078 106.292 100.252 106.185 100.444 106.121L103.11 105.233C103.369 105.147 103.595 104.982 103.754 104.76C103.914 104.539 104 104.273 104 104C104 103.727 103.914 103.461 103.754 103.239C103.595 103.018 103.369 102.852 103.11 102.766L100.444 101.878C100.252 101.815 100.078 101.707 99.9355 101.564C99.7927 101.421 99.6851 101.247 99.6213 101.056L98.7335 98.3898Z" fill="white"/>
</g>
<path opacity="0.17" d="M137.734 117.89C137.647 117.631 137.482 117.405 137.261 117.245C137.039 117.086 136.773 117 136.5 117C136.227 117 135.961 117.086 135.739 117.245C135.518 117.405 135.353 117.631 135.266 117.89L134.379 120.556C134.315 120.747 134.207 120.921 134.065 121.064C133.922 121.207 133.748 121.315 133.556 121.378L130.89 122.266C130.631 122.352 130.405 122.518 130.246 122.739C130.086 122.961 130 123.227 130 123.5C130 123.773 130.086 124.039 130.246 124.26C130.405 124.482 130.631 124.647 130.89 124.733L133.556 125.622C133.747 125.686 133.921 125.793 134.064 125.936C134.207 126.079 134.315 126.252 134.379 126.444L135.266 129.11C135.353 129.369 135.518 129.594 135.739 129.754C135.961 129.914 136.227 130 136.5 130C136.773 130 137.039 129.914 137.261 129.754C137.482 129.594 137.647 129.369 137.734 129.11L138.621 126.444C138.685 126.252 138.793 126.078 138.935 125.935C139.078 125.792 139.252 125.685 139.444 125.621L142.11 124.733C142.369 124.647 142.595 124.482 142.754 124.26C142.914 124.039 143 123.773 143 123.5C143 123.227 142.914 122.961 142.754 122.739C142.595 122.518 142.369 122.352 142.11 122.266L139.444 121.378C139.252 121.315 139.078 121.207 138.935 121.064C138.793 120.921 138.685 120.747 138.621 120.556L137.734 117.89Z" fill="white"/>
<g opacity="0.44" filter="url(#filter6_f_185_1200)">
<path d="M14.2335 59.3898C14.1474 59.1307 13.982 58.9052 13.7605 58.7455C13.5391 58.5857 13.273 58.4998 13 58.4998C12.727 58.4998 12.4609 58.5857 12.2395 58.7455C12.018 58.9052 11.8526 59.1307 11.7665 59.3898L10.8787 62.0557C10.8149 62.2473 10.7073 62.4215 10.5645 62.5643C10.4217 62.7071 10.2476 62.8147 10.0559 62.8785L7.39001 63.7662C7.13091 63.8523 6.90549 64.0178 6.74573 64.2392C6.58598 64.4606 6.5 64.7267 6.5 64.9998C6.5 65.2728 6.58598 65.5389 6.74573 65.7603C6.90549 65.9817 7.13091 66.1472 7.39001 66.2333L10.0559 67.1223C10.2474 67.186 10.4215 67.2934 10.5643 67.436C10.7071 67.5786 10.8147 67.7524 10.8787 67.9438L11.7665 70.6097C11.8526 70.8688 12.018 71.0943 12.2395 71.254C12.4609 71.4138 12.727 71.4998 13 71.4998C13.273 71.4998 13.5391 71.4138 13.7605 71.254C13.982 71.0943 14.1474 70.8688 14.2335 70.6097L15.1213 67.9438C15.1851 67.7522 15.2927 67.5781 15.4355 67.4352C15.5783 67.2924 15.7524 67.1848 15.9441 67.121L18.61 66.2333C18.8691 66.1472 19.0945 65.9817 19.2543 65.7603C19.414 65.5389 19.5 65.2728 19.5 64.9998C19.5 64.7267 19.414 64.4606 19.2543 64.2392C19.0945 64.0178 18.8691 63.8523 18.61 63.7662L15.9441 62.8785C15.7524 62.8147 15.5783 62.7071 15.4355 62.5643C15.2927 62.4215 15.1851 62.2473 15.1213 62.0557L14.2335 59.3898Z" fill="white"/>
</g>
<g opacity="0.41" filter="url(#filter7_f_185_1200)">
<path d="M40.2335 156.89C40.1474 156.631 39.982 156.405 39.7605 156.245C39.5391 156.086 39.273 156 39 156C38.727 156 38.4609 156.086 38.2395 156.245C38.018 156.405 37.8526 156.631 37.7665 156.89L36.8787 159.556C36.8149 159.747 36.7073 159.921 36.5645 160.064C36.4217 160.207 36.2476 160.315 36.0559 160.378L33.39 161.266C33.1309 161.352 32.9055 161.518 32.7457 161.739C32.586 161.961 32.5 162.227 32.5 162.5C32.5 162.773 32.586 163.039 32.7457 163.26C32.9055 163.482 33.1309 163.647 33.39 163.733L36.0559 164.622C36.2474 164.686 36.4215 164.793 36.5643 164.936C36.7071 165.079 36.8147 165.252 36.8787 165.444L37.7665 168.11C37.8526 168.369 38.018 168.594 38.2395 168.754C38.4609 168.914 38.727 169 39 169C39.273 169 39.5391 168.914 39.7605 168.754C39.982 168.594 40.1474 168.369 40.2335 168.11L41.1213 165.444C41.1851 165.252 41.2927 165.078 41.4355 164.935C41.5783 164.792 41.7524 164.685 41.9441 164.621L44.61 163.733C44.8691 163.647 45.0945 163.482 45.2543 163.26C45.414 163.039 45.5 162.773 45.5 162.5C45.5 162.227 45.414 161.961 45.2543 161.739C45.0945 161.518 44.8691 161.352 44.61 161.266L41.9441 160.378C41.7524 160.315 41.5783 160.207 41.4355 160.064C41.2927 159.921 41.1851 159.747 41.1213 159.556L40.2335 156.89Z" fill="white"/>
</g>
<path opacity="0.09" d="M66.2335 104.89C66.1474 104.631 65.982 104.405 65.7605 104.245C65.5391 104.086 65.273 104 65 104C64.727 104 64.4609 104.086 64.2395 104.245C64.018 104.405 63.8526 104.631 63.7665 104.89L62.8787 107.556C62.8149 107.747 62.7073 107.921 62.5645 108.064C62.4217 108.207 62.2476 108.315 62.0559 108.378L59.39 109.266C59.1309 109.352 58.9055 109.518 58.7457 109.739C58.586 109.961 58.5 110.227 58.5 110.5C58.5 110.773 58.586 111.039 58.7457 111.26C58.9055 111.482 59.1309 111.647 59.39 111.733L62.0559 112.622C62.2474 112.686 62.4215 112.793 62.5643 112.936C62.7071 113.079 62.8147 113.252 62.8787 113.444L63.7665 116.11C63.8526 116.369 64.018 116.594 64.2395 116.754C64.4609 116.914 64.727 117 65 117C65.273 117 65.5391 116.914 65.7605 116.754C65.982 116.594 66.1474 116.369 66.2335 116.11L67.1213 113.444C67.1851 113.252 67.2927 113.078 67.4355 112.935C67.5783 112.792 67.7524 112.685 67.9441 112.621L70.61 111.733C70.8691 111.647 71.0945 111.482 71.2543 111.26C71.414 111.039 71.5 110.773 71.5 110.5C71.5 110.227 71.414 109.961 71.2543 109.739C71.0945 109.518 70.8691 109.352 70.61 109.266L67.9441 108.378C67.7524 108.315 67.5783 108.207 67.4355 108.064C67.2927 107.921 67.1851 107.747 67.1213 107.556L66.2335 104.89Z" fill="white"/>
<path opacity="0.15" d="M196.234 98.3898C196.147 98.1307 195.982 97.9052 195.761 97.7455C195.539 97.5857 195.273 97.4998 195 97.4998C194.727 97.4998 194.461 97.5857 194.239 97.7455C194.018 97.9052 193.853 98.1307 193.766 98.3898L192.879 101.056C192.815 101.247 192.707 101.421 192.565 101.564C192.422 101.707 192.248 101.815 192.056 101.878L189.39 102.766C189.131 102.852 188.905 103.018 188.746 103.239C188.586 103.461 188.5 103.727 188.5 104C188.5 104.273 188.586 104.539 188.746 104.76C188.905 104.982 189.131 105.147 189.39 105.233L192.056 106.122C192.247 106.186 192.421 106.293 192.564 106.436C192.707 106.579 192.815 106.752 192.879 106.944L193.766 109.61C193.853 109.869 194.018 110.094 194.239 110.254C194.461 110.414 194.727 110.5 195 110.5C195.273 110.5 195.539 110.414 195.761 110.254C195.982 110.094 196.147 109.869 196.234 109.61L197.121 106.944C197.185 106.752 197.293 106.578 197.435 106.435C197.578 106.292 197.752 106.185 197.944 106.121L200.61 105.233C200.869 105.147 201.095 104.982 201.254 104.76C201.414 104.539 201.5 104.273 201.5 104C201.5 103.727 201.414 103.461 201.254 103.239C201.095 103.018 200.869 102.852 200.61 102.766L197.944 101.878C197.752 101.815 197.578 101.707 197.435 101.564C197.293 101.421 197.185 101.247 197.121 101.056L196.234 98.3898Z" fill="white"/>
</g>
</g>
<defs>
<filter id="filter0_d_185_1200" x="1.08558" y="17.3689" width="206.256" height="206.256" filterUnits="userSpaceOnUse" color-interpolation-filters="sRGB">
<feFlood flood-opacity="0" result="BackgroundImageFix"/>
<feColorMatrix in="SourceAlpha" type="matrix" values="0 0 0 0 0 0 0 0 0 0 0 0 0 0 0 0 0 0 127 0" result="hardAlpha"/>
<feOffset dy="16.2834"/>
<feGaussianBlur stdDeviation="18.9972"/>
<feComposite in2="hardAlpha" operator="out"/>
<feColorMatrix type="matrix" values="0 0 0 0 0 0 0 0 0 0 0 0 0 0 0 0 0 0 0.22 0"/>
<feBlend mode="normal" in2="BackgroundImageFix" result="effect1_dropShadow_185_1200"/>
<feBlend mode="normal" in="SourceGraphic" in2="effect1_dropShadow_185_1200" result="shape"/>
</filter>
<filter id="filter1_f_185_1200" x="149.487" y="6.48641" width="26.0267" height="26.0267" filterUnits="userSpaceOnUse" color-interpolation-filters="sRGB">
<feFlood flood-opacity="0" result="BackgroundImageFix"/>
<feBlend mode="normal" in="SourceGraphic" in2="BackgroundImageFix" result="shape"/>
<feGaussianBlur stdDeviation="3.25667" result="effect1_foregroundBlur_185_1200"/>
</filter>
<filter id="filter2_f_185_1200" x="103.987" y="71.4864" width="26.0267" height="26.0267" filterUnits="userSpaceOnUse" color-interpolation-filters="sRGB">
<feFlood flood-opacity="0" result="BackgroundImageFix"/>
<feBlend mode="normal" in="SourceGraphic" in2="BackgroundImageFix" result="shape"/>
<feGaussianBlur stdDeviation="3.25667" result="effect1_foregroundBlur_185_1200"/>
</filter>
<filter id="filter3_f_185_1200" x="25.9867" y="71.4864" width="26.0267" height="26.0267" filterUnits="userSpaceOnUse" color-interpolation-filters="sRGB">
<feFlood flood-opacity="0" result="BackgroundImageFix"/>
<feBlend mode="normal" in="SourceGraphic" in2="BackgroundImageFix" result="shape"/>
<feGaussianBlur stdDeviation="3.25667" result="effect1_foregroundBlur_185_1200"/>
</filter>
<filter id="filter4_f_185_1200" x="97.4867" y="12.9864" width="26.0267" height="26.0267" filterUnits="userSpaceOnUse" color-interpolation-filters="sRGB">
<feFlood flood-opacity="0" result="BackgroundImageFix"/>
<feBlend mode="normal" in="SourceGraphic" in2="BackgroundImageFix" result="shape"/>
<feGaussianBlur stdDeviation="3.25667" result="effect1_foregroundBlur_185_1200"/>
</filter>
<filter id="filter5_f_185_1200" x="84.4867" y="90.9864" width="26.0267" height="26.0267" filterUnits="userSpaceOnUse" color-interpolation-filters="sRGB">
<feFlood flood-opacity="0" result="BackgroundImageFix"/>
<feBlend mode="normal" in="SourceGraphic" in2="BackgroundImageFix" result="shape"/>
<feGaussianBlur stdDeviation="3.25667" result="effect1_foregroundBlur_185_1200"/>
</filter>
<filter id="filter6_f_185_1200" x="-0.0133429" y="51.9864" width="26.0267" height="26.0267" filterUnits="userSpaceOnUse" color-interpolation-filters="sRGB">
<feFlood flood-opacity="0" result="BackgroundImageFix"/>
<feBlend mode="normal" in="SourceGraphic" in2="BackgroundImageFix" result="shape"/>
<feGaussianBlur stdDeviation="3.25667" result="effect1_foregroundBlur_185_1200"/>
</filter>
<filter id="filter7_f_185_1200" x="25.9867" y="149.486" width="26.0267" height="26.0267" filterUnits="userSpaceOnUse" color-interpolation-filters="sRGB">
<feFlood flood-opacity="0" result="BackgroundImageFix"/>
<feBlend mode="normal" in="SourceGraphic" in2="BackgroundImageFix" result="shape"/>
<feGaussianBlur stdDeviation="3.25667" result="effect1_foregroundBlur_185_1200"/>
</filter>
<radialGradient id="paint0_diamond_185_1200" cx="0" cy="0" r="1" gradientUnits="userSpaceOnUse" gradientTransform="translate(104 33.8) rotate(90) scale(158.6)">
<stop offset="0.38802" stop-color="#AB68FF"/>
<stop offset="1" stop-color="#7637DD"/>
</radialGradient>
<linearGradient id="paint1_linear_185_1200" x1="104" y1="0" x2="104" y2="208" gradientUnits="userSpaceOnUse">
<stop offset="0.328125" stop-opacity="0"/>
<stop offset="1"/>
</linearGradient>
<radialGradient id="paint2_radial_185_1200" cx="0" cy="0" r="1" gradientUnits="userSpaceOnUse" gradientTransform="translate(104.214 32.8769) rotate(90) scale(226.416)">
<stop offset="0.235816" stop-color="white"/>
<stop offset="1" stop-color="white" stop-opacity="0"/>
</radialGradient>
<radialGradient id="paint3_radial_185_1200" cx="0" cy="0" r="1" gradientUnits="userSpaceOnUse" gradientTransform="translate(104.214 32.8769) rotate(90) scale(226.416)">
<stop offset="0.235816" stop-color="white"/>
<stop offset="1" stop-color="white" stop-opacity="0"/>
</radialGradient>
<radialGradient id="paint4_radial_185_1200" cx="0" cy="0" r="1" gradientUnits="userSpaceOnUse" gradientTransform="translate(104.214 32.8769) rotate(90) scale(226.416)">
<stop offset="0.235816" stop-color="white"/>
<stop offset="1" stop-color="white" stop-opacity="0"/>
</radialGradient>
<radialGradient id="paint5_radial_185_1200" cx="0" cy="0" r="1" gradientUnits="userSpaceOnUse" gradientTransform="translate(104.214 32.8769) rotate(90) scale(226.416)">
<stop offset="0.235816" stop-color="white"/>
<stop offset="1" stop-color="white" stop-opacity="0"/>
</radialGradient>
<radialGradient id="paint6_radial_185_1200" cx="0" cy="0" r="1" gradientUnits="userSpaceOnUse" gradientTransform="translate(104.214 32.8769) rotate(90) scale(226.416)">
<stop offset="0.235816" stop-color="white"/>
<stop offset="1" stop-color="white" stop-opacity="0"/>
</radialGradient>
<radialGradient id="paint7_radial_185_1200" cx="0" cy="0" r="1" gradientUnits="userSpaceOnUse" gradientTransform="translate(104.214 32.8769) rotate(90) scale(226.416)">
<stop offset="0.235816" stop-color="white"/>
<stop offset="1" stop-color="white" stop-opacity="0"/>
</radialGradient>
<radialGradient id="paint8_radial_185_1200" cx="0" cy="0" r="1" gradientUnits="userSpaceOnUse" gradientTransform="translate(104.214 32.8769) rotate(90) scale(226.416)">
<stop offset="0.235816" stop-color="white"/>
<stop offset="1" stop-color="white" stop-opacity="0"/>
</radialGradient>
<radialGradient id="paint9_radial_185_1200" cx="0" cy="0" r="1" gradientUnits="userSpaceOnUse" gradientTransform="translate(104.214 32.8769) rotate(90) scale(226.416)">
<stop offset="0.235816" stop-color="white"/>
<stop offset="1" stop-color="white" stop-opacity="0"/>
</radialGradient>
<radialGradient id="paint10_radial_185_1200" cx="0" cy="0" r="1" gradientUnits="userSpaceOnUse" gradientTransform="translate(104.214 32.8769) rotate(90) scale(226.416)">
<stop offset="0.235816" stop-color="white"/>
<stop offset="1" stop-color="white" stop-opacity="0"/>
</radialGradient>
<radialGradient id="paint11_radial_185_1200" cx="0" cy="0" r="1" gradientUnits="userSpaceOnUse" gradientTransform="translate(104.214 32.8769) rotate(90) scale(226.416)">
<stop offset="0.235816" stop-color="white"/>
<stop offset="1" stop-color="white" stop-opacity="0"/>
</radialGradient>
<radialGradient id="paint12_radial_185_1200" cx="0" cy="0" r="1" gradientUnits="userSpaceOnUse" gradientTransform="translate(104.214 32.8769) rotate(90) scale(226.416)">
<stop offset="0.235816" stop-color="white"/>
<stop offset="1" stop-color="white" stop-opacity="0"/>
</radialGradient>
<radialGradient id="paint13_radial_185_1200" cx="0" cy="0" r="1" gradientUnits="userSpaceOnUse" gradientTransform="translate(104.214 32.8769) rotate(90) scale(226.416)">
<stop offset="0.235816" stop-color="white"/>
<stop offset="1" stop-color="white" stop-opacity="0"/>
</radialGradient>
<clipPath id="clip0_185_1200">
<rect width="208" height="208" fill="white"/>
</clipPath>
</defs>
</svg>
